<svg width="218" height="131" viewBox="0 0 218 131" fill="none" xmlns="http://www.w3.org/2000/svg">
<path opacity="0.7" d="M17.25 6V129M10.25 6V129M24.25 6V129M80.25 6V129M73.25 6V129M87.25 6V129M59.25 6V129M52.25 6V129M66.25 6V129M38.25 6V129M31.25 6V129M45.25 6V129M185.25 6V129M178.25 6V129M192.25 6V129M206.25 6V129M199.25 6V129M101.25 6V129M94.25 6V129M108.25 6V129M164.25 6V129M157.25 6V129M171.25 6V129M143.25 6V129M136.25 6V129M150.25 6V129M122.25 6V129M115.25 6V129M129.25 6V129M5 34H210M5 41H210M5 27H210M5 13H210M5 20H210M5 118H210M5 125H210M5 111H210M5 55H210M5 62H210M5 48H210M5 76H210M5 83H210M5 69H210M5 97H210M5 104H210M5 90H210" stroke="#7E7E7E" stroke-opacity="0.7" stroke-width="0.5"/>
<path d="M3.52426 129.992L2.50859 1M1 3.55209L216.002 3.55219M214.524 129.992L213.509 1" stroke="white" stroke-width="5"/>
</svg>
